<?xml version="1.0" encoding="UTF-8" standalone="no"?><!-- Generator: Gravit.io --><svg xmlns="http://www.w3.org/2000/svg" xmlns:xlink="http://www.w3.org/1999/xlink" style="isolation:isolate" viewBox="0 0 1000 498" width="1000pt" height="498pt"><defs><clipPath id="_clipPath_ovObT4BCDhSGqPkvbSRORcbCoH5AsIGB"><rect width="1000" height="498"/></clipPath></defs><g clip-path="url(#_clipPath_ovObT4BCDhSGqPkvbSRORcbCoH5AsIGB)"><g/><g><g><path d=" M 613.511 157.323 L 614.813 157.486 L 616.114 231.836 L 612.21 231.836 L 613.511 157.323 Z " fill="rgb(234,234,234)"/></g><g><path d=" M 68.493 0 L 69.958 0.163 L 71.422 83.136 L 67.029 83.136 L 68.493 0 Z " fill="rgb(234,234,234)"/></g><g><path d=" M 164.97 48.645 C 133.733 58.569 100.869 42.788 68.493 48.808 C 68.493 31.074 69.307 22.289 69.307 4.555 C 101.357 -5.694 132.919 14.805 164.97 4.555 C 154.232 17.245 149.026 21.638 138.288 29.773 C 149.026 39.209 154.232 43.601 164.97 48.645 Z " fill="rgb(78,146,165)"/></g><g><path d=" M 700.714 199.298 C 671.104 204.016 643.935 194.742 614.162 199.298 C 614.162 183.516 614.813 175.382 614.813 159.601 C 644.26 154.883 671.267 164.319 700.551 159.601 C 690.953 170.989 686.235 174.894 676.636 182.215 C 686.397 191 691.115 194.905 700.714 199.298 Z " fill="rgb(234,118,103)"/></g><g><circle vector-effect="non-scaling-stroke" cx="614.1620385494933" cy="156.83502123489052" r="2.1149950996406233" fill="rgb(218,218,218)"/></g><g><path d=" M 564.704 497.837 L 487.425 497.837 L 613.674 209.059 L 564.704 497.837 Z " fill="rgb(78,146,165)"/></g><g><path d=" M 752.938 497.837 L 649.954 497.837 L 613.674 209.059 L 752.938 497.837 Z " fill="rgb(78,146,165)"/></g><g><path d=" M 613.837 209.059 L 900.825 497.837 L 823.384 497.837" fill="rgb(78,146,165)"/></g><g><path d=" M 429.507 498 L 354.994 497.837 L 613.674 209.059 L 429.507 498 Z " fill="rgb(78,146,165)"/></g><g><path d=" M 300.98 497.837 L 263.886 497.837 L 547.133 271.37 L 300.98 497.837 Z " fill="rgb(78,146,165)"/></g><g><path d=" M 679.402 266.327 L 994.698 497.837 L 935.967 497.512" fill="rgb(78,146,165)"/></g><g><path d=" M 487.425 497.837 L 429.507 497.837 L 613.674 209.059 L 487.425 497.837 Z " fill="rgb(255,255,255)"/></g><g><path d=" M 354.994 497.837 L 300.98 497.837 L 613.674 209.059 L 354.994 497.837 Z " fill="rgb(255,255,255)"/></g><g><path d=" M 649.954 496.21 L 564.704 496.21 L 613.674 209.059 L 649.954 496.21 Z " fill="rgb(255,255,255)"/></g><g><path d=" M 833.145 497.837 L 751.311 497.837 L 613.837 209.059 L 833.145 497.837 Z " fill="rgb(255,255,255)"/></g><g><path d=" M 900.5 497.837 L 613.674 209.059 L 944.101 497.512" fill="rgb(255,255,255)"/></g><g><path d=" M 2.882 182.281 L 68.493 80.533 L 2.097 266.253" fill="rgb(234,118,103)"/></g><g><path d=" M 68.493 80.533 L 369.961 497.837 L 219.797 497.837" fill="rgb(234,118,103)"/></g><g><path d=" M 68.493 80.533 L 586.342 497.837 L 463.021 498" fill="rgb(234,118,103)"/></g><g><path d=" M 178.961 157.974 L 758.795 497.837 L 649.303 497.837" fill="rgb(234,118,103)"/></g><g><path d=" M 153.093 497.837 L 68.656 80.695 L 235.741 497.837" fill="rgb(255,255,255)"/></g><path d=" M 0 497.187 L 68.493 80.533 L 153.093 497.837" fill="rgb(234,118,103)"/><path d=" M 2.097 266.327 L 68.493 80.533 L 0 497.187" fill="rgb(255,255,255)"/><path d=" M 3.128 155.949 L 68.493 80.533 L 2.882 182.281" fill="rgb(255,255,255)"/><g><path d=" M 464.811 498 L 369.636 497.837 L 68.493 80.533 L 464.811 498 Z " fill="rgb(255,255,255)"/></g><g><path d=" M 586.342 497.837 L 68.493 80.533 L 667.688 497.837" fill="rgb(255,255,255)"/></g><g><path d=" M 792.472 497.837 L 758.795 497.837 L 179.124 157.811 L 792.472 497.837 Z " fill="rgb(255,255,255)"/></g></g></g></svg>